# xmcd
#
# Track frame offsets:
#	150
#	13140
#	25552
#	39360
#	52225
#	64472
#	79552
#	92405
#	106735
#	118150
#	131220
#	144060
#
# Disc length: 2094 seconds
#
# Revision: 1
# Processed by: cddbd v1.5.2PL0 Copyright (c) Steve Scherf et al.
# Submitted via: audiograbber 1.83.01
#
DISCID=98082c0c
DTITLE=Blasorchester Wolfgang Grünbauer - Goldene Blasmusik
DYEAR=1998
DGENRE=Blasmusik
TTITLE0=König Ludwig II Marsch
TTITLE1=Böhmisches Schmankerl
TTITLE2=Bei uns dahoam
TTITLE3=Glücksbringer Polka
TTITLE4=Grüner Pfeffer
TTITLE5=Nepomuk
TTITLE6=Goldene Blasmusik
TTITLE7=Sehnsucht nach Zuhaus`
TTITLE8=Musik im Herzen
TTITLE9=Zwei Freunde für`s Leben
TTITLE10=Ja, die Musik
TTITLE11=Der Jäger aus Kurpfalz
EXTD=
EXTT0=
EXTT1=
EXTT2=
EXTT3=
EXTT4=
EXTT5=
EXTT6=
EXTT7=
EXTT8=
EXTT9=
EXTT10=
EXTT11=
PLAYORDER=
